<?xml version="1.0" standalone="no"?>
<!DOCTYPE svg PUBLIC "-//W3C//DTD SVG 20010904//EN"
 "http://www.w3.org/TR/2001/REC-SVG-20010904/DTD/svg10.dtd">
<svg version="1.0" xmlns="http://www.w3.org/2000/svg"
 width="559.000000pt" height="559.000000pt" viewBox="0 0 559.000000 559.000000"
 preserveAspectRatio="xMidYMid meet">
<metadata>
Created by potrace 1.11, written by Peter Selinger 2001-2013
</metadata>
<g transform="translate(0.000000,559.000000) scale(0.100000,-0.100000)"
fill="#000000" stroke="none">
<path d="M2733 5289 c-76 -14 -167 -75 -313 -210 -14 -13 -50 -44 -80 -69 -30
-25 -64 -54 -76 -65 -11 -11 -44 -40 -74 -65 -29 -25 -58 -50 -64 -55 -6 -6
-56 -48 -111 -95 -55 -47 -102 -87 -105 -90 -5 -5 -160 -139 -509 -439 -86
-73 -170 -146 -186 -161 -17 -14 -80 -69 -140 -121 -61 -52 -123 -106 -140
-120 -16 -15 -102 -89 -190 -164 -88 -76 -185 -159 -215 -185 -30 -27 -140
-122 -245 -212 -244 -210 -279 -261 -277 -403 2 -192 151 -327 364 -327 106 0
145 24 383 233 16 15 127 109 245 210 118 101 217 186 220 189 3 3 34 30 70
60 36 30 67 57 70 60 3 3 34 30 70 60 36 30 67 57 70 60 3 3 115 100 250 215
135 115 256 220 270 232 14 11 95 81 180 153 85 73 169 144 185 159 24 21 324
278 397 339 16 14 24 10 80 -39 35 -30 74 -64 88 -75 28 -24 261 -224 300
-258 14 -12 293 -251 620 -531 327 -280 609 -522 625 -536 273 -241 570 -486
615 -508 79 -37 201 -37 280 0 118 55 192 167 197 295 4 129 -38 209 -164 316
-43 37 -87 75 -98 85 -17 15 -177 153 -255 219 -14 12 -63 55 -110 95 -47 41
-116 101 -155 134 -38 33 -83 72 -100 86 -30 27 -188 163 -235 203 -68 58
-166 142 -170 146 -3 3 -36 32 -75 65 -38 33 -72 62 -75 65 -3 3 -68 59 -145
125 -136 117 -186 160 -209 180 -6 6 -58 50 -116 100 -58 49 -107 92 -110 95
-3 3 -52 45 -110 95 -58 49 -110 94 -116 100 -6 5 -24 21 -40 34 -47 39 -159
136 -164 141 -34 35 -160 135 -188 149 -63 32 -146 43 -219 30z"/>
<path d="M4153 5105 c-50 -18 -71 -34 -95 -72 -21 -35 -23 -50 -25 -198 -2
-136 0 -162 14 -172 9 -7 41 -34 72 -61 55 -48 298 -259 551 -476 l125 -107 3
468 c1 257 0 482 -3 500 -7 39 -46 88 -89 110 -26 14 -69 17 -278 18 -146 0
-258 -4 -275 -10z"/>
<path d="M2732 4027 c-46 -14 -1794 -1511 -1845 -1580 -20 -28 -47 -80 -58
-116 -20 -65 -21 -83 -20 -971 0 -498 2 -920 6 -938 7 -42 37 -83 78 -108 31
-18 58 -19 642 -20 383 -1 621 2 640 9 33 11 80 50 98 82 9 14 13 206 17 686
l5 665 25 37 c51 75 51 75 498 73 447 -1 438 0 489 -78 l28 -41 0 -657 0 -657
28 -41 c54 -83 25 -79 692 -80 639 0 629 -1 687 55 15 15 31 45 37 72 7 30 10
355 10 940 -1 971 0 950 -57 1054 -25 47 -90 111 -252 249 -182 155 -441 376
-475 405 -22 20 -62 54 -90 78 -110 94 -363 311 -415 356 -30 26 -111 95 -180
154 -69 59 -138 119 -155 134 -16 14 -73 62 -125 106 -52 44 -101 86 -108 93
-45 42 -134 59 -200 39z m212 -920 c70 -32 134 -96 171 -172 24 -50 29 -72 29
-135 0 -92 -14 -144 -57 -207 -128 -185 -389 -206 -541 -43 -72 77 -91 126
-91 240 0 107 16 153 82 229 98 116 267 152 407 88z"/>
</g>
</svg>
